Coordinates
version=1
nRows=6
nColumns=63
inDegrees=yes

Units are S.I. units (second, meters, Newtons, ...)
If the header above contains a line with 'inDegrees', this indicates whether rotational values are in degrees (yes) or radians (no).

endheader
time	pelvis_tilt	pelvis_list	pelvis_rotation	pelvis_tx	pelvis_ty	pelvis_tz	hip_flexion_r	hip_adduction_r	hip_rotation_r	knee_angle_r	knee_angle_r_beta	ankle_angle_r	subtalar_angle_r	mtp_angle_r	hip_flexion_l	hip_adduction_l	hip_rotation_l	knee_angle_l	knee_angle_l_beta	ankle_angle_l	subtalar_angle_l	mtp_angle_l	L5_S1_Flex_Ext	L5_S1_Lat_Bending	L5_S1_axial_rotation	L4_L5_Flex_Ext	L4_L5_Lat_Bending	L4_L5_axial_rotation	L3_L4_Flex_Ext	L3_L4_Lat_Bending	L3_L4_axial_rotation	L2_L3_Flex_Ext	L2_L3_Lat_Bending	L2_L3_axial_rotation	L1_L2_Flex_Ext	L1_L2_Lat_Bending	L1_L2_axial_rotation	L1_T12_Flex_Ext	L1_T12_Lat_Bending	L1_T12_axial_rotation	Abs_r3	Abs_r2	Abs_r1	Abs_t1	Abs_t2	neck_flexion	neck_bending	neck_rotation	arm_flex_r	arm_add_r	arm_rot_r	elbow_flex_r	pro_sup_r	wrist_flex_r	wrist_dev_r	arm_flex_l	arm_add_l	arm_rot_l	elbow_flex_l	pro_sup_l	wrist_flex_l	wrist_dev_l
0.000000	-1.392498	-5.959661	90.682737	0.299185	0.897488	0.702937	-3.636662	0.662251	20.353332	-0.375184	-0.006548	24.037235	-16.388630	0.000000	-3.149884	-2.884993	16.526243	0.382875	0.006682	24.177497	-18.435106	0.000000	-0.130768	-0.044380	1.342247	-0.242849	-0.059026	1.426137	-0.214839	-0.107906	1.426137	-0.149455	-0.107906	1.174466	-0.121431	-0.090500	1.090575	-0.074721	-0.068745	1.006685	-0.934063	-0.502038	7.465173	0.000000	0.000000	15.891069	0.752047	-8.554188	10.223650	-3.543611	26.598044	71.624637	66.491331	6.824435	15.043051	9.100499	-10.496232	27.060662	75.901657	77.597836	-10.874142	6.393545
0.026316	-1.487095	-6.301212	91.724723	0.295526	0.895865	0.704899	-2.925640	0.335655	17.464695	0.349161	0.006094	25.315242	-14.124183	0.000000	-1.897907	-2.476165	15.814355	1.610112	0.028102	25.887283	-16.911734	0.000000	-0.118159	-0.034514	1.203065	-0.219432	-0.045904	1.278257	-0.194123	-0.083918	1.278257	-0.135044	-0.083918	1.052682	-0.109722	-0.070382	0.977490	-0.067516	-0.053463	0.902299	-0.843995	-0.390435	6.691088	0.000000	0.000000	16.704978	0.586624	-8.689341	9.026192	-4.309996	26.882378	71.458202	70.648562	7.076863	14.392756	8.295383	-10.690829	28.689463	75.123494	78.988486	-10.101864	4.642079
0.052632	-1.573238	-6.549120	92.610171	0.292581	0.894503	0.706352	-2.459885	0.078710	15.374007	0.798392	0.013935	26.292052	-12.542512	0.000000	-0.919723	-2.144272	15.187659	2.606019	0.045484	27.367401	-15.509934	0.000000	-0.107192	-0.027989	1.074086	-0.199065	-0.037226	1.141216	-0.176105	-0.068053	1.141216	-0.122509	-0.068053	0.939825	-0.099538	-0.057076	0.872695	-0.061249	-0.043355	0.805564	-0.765658	-0.316620	5.973743	0.000000	0.000000	17.288555	0.466881	-8.716415	8.071141	-4.946958	27.192464	71.400751	73.980399	7.348704	13.977595	7.572264	-10.975303	29.977103	74.664768	79.993363	-9.361402	3.099988
0.078947	-1.649292	-6.716079	93.347675	0.290286	0.893384	0.707359	-2.201082	-0.114194	13.970711	1.016681	0.017744	27.005462	-11.540852	0.000000	-0.186101	-1.883804	14.642607	3.390389	0.059173	28.630367	-14.234345	0.000000	-0.097780	-0.024196	0.956786	-0.181587	-0.032181	1.016585	-0.160643	-0.058831	1.016585	-0.111753	-0.058831	0.837188	-0.090799	-0.049341	0.777389	-0.055872	-0.037480	0.717590	-0.698434	-0.273715	5.321358	0.000000	0.000000	17.671910	0.383403	-8.657313	7.328991	-5.467315	27.513832	71.444592	76.566973	7.630650	13.765825	6.931763	-11.333291	30.966311	74.485479	80.649612	-8.654902	1.756483
0.105263	-1.713623	-6.814780	93.945830	0.288574	0.892491	0.707981	-2.110917	-0.248667	13.144250	1.048202	0.018295	27.493272	-11.016435	0.000000	0.332188	-1.689253	14.175649	3.983015	0.069517	29.688695	-13.089609	0.000000	-0.089838	-0.022528	0.852644	-0.166838	-0.029962	0.905934	-0.147595	-0.054775	0.905934	-0.102676	-0.054775	0.746063	-0.083423	-0.045939	0.692773	-0.051333	-0.034896	0.639483	-0.641703	-0.254841	4.742150	0.000000	0.000000	17.885151	0.326773	-8.533936	6.770234	-5.883886	27.832010	71.582032	78.488416	7.913396	13.725702	6.374503	-11.748432	31.699817	74.545630	80.994379	-7.984511	0.600773
0.131579	-1.764595	-6.857919	94.413229	0.287381	0.891806	0.708281	-2.151073	-0.330321	12.784070	0.937128	0.016356	27.793280	-10.866495	0.000000	0.664374	-1.555111	13.783236	4.403688	0.076859	30.554900	-12.080364	0.000000	-0.083278	-0.022376	0.763136	-0.154656	-0.029760	0.810832	-0.136818	-0.054405	0.810832	-0.095179	-0.054405	0.667744	-0.077332	-0.045629	0.620048	-0.047585	-0.034660	0.572352	-0.594849	-0.253121	4.244336	0.000000	0.000000	17.958389	0.287576	-8.368188	6.365364	-6.209487	28.132526	71.805378	79.824859	8.187636	13.825484	5.901104	-12.204364	32.220352	74.805221	81.064810	-7.352375	-0.377930
